<?xml version="1.0" encoding="UTF-8" standalone="no"?>
<!-- Created with Inkscape (http://www.inkscape.org/) -->

<svg
   xmlns:dc="http://purl.org/dc/elements/1.1/"
   xmlns:cc="http://creativecommons.org/ns#"
   xmlns:rdf="http://www.w3.org/1999/02/22-rdf-syntax-ns#"
   xmlns:svg="http://www.w3.org/2000/svg"
   xmlns="http://www.w3.org/2000/svg"
   xmlns:sodipodi="http://sodipodi.sourceforge.net/DTD/sodipodi-0.dtd"
   xmlns:inkscape="http://www.inkscape.org/namespaces/inkscape"
   width="272.40619"
   height="177.39204"
   id="svg3863"
   sodipodi:version="0.32"
   inkscape:version="0.48.3.1 r9886"
   version="1.0"
   sodipodi:docname="suisse.svg"
   inkscape:export-filename="C:\Documents and Settings\MARTIAL\Mes documents\Mes images\CARTES\SVG\CARTE DRAPEAU SUISSE.png"
   inkscape:export-xdpi="90"
   inkscape:export-ydpi="90">
  <defs
     id="defs3865">
    <inkscape:perspective
       sodipodi:type="inkscape:persp3d"
       inkscape:vp_x="0 : 91.858307 : 1"
       inkscape:vp_y="0 : 1000 : 0"
       inkscape:vp_z="277.24127 : 91.858307 : 1"
       inkscape:persp3d-origin="138.62064 : 61.238871 : 1"
       id="perspective11" />
  </defs>
  <sodipodi:namedview
     id="base"
     pagecolor="#ffffff"
     bordercolor="#666666"
     borderopacity="1.0"
     inkscape:pageopacity="0.0"
     inkscape:pageshadow="2"
     inkscape:zoom="1.5545563"
     inkscape:cx="13.697456"
     inkscape:cy="68.429195"
     inkscape:document-units="px"
     inkscape:current-layer="layer1"
     inkscape:window-width="1920"
     inkscape:window-height="1176"
     inkscape:window-x="1920"
     inkscape:window-y="24"
     showgrid="false"
     inkscape:window-maximized="1" />
  <metadata
     id="metadata3868">
    <rdf:RDF>
      <cc:Work
         rdf:about="">
        <dc:format>image/svg+xml</dc:format>
        <dc:type
           rdf:resource="http://purl.org/dc/dcmitype/StillImage" />
      </cc:Work>
    </rdf:RDF>
  </metadata>
  <g
     inkscape:label="Calque 1"
     inkscape:groupmode="layer"
     id="layer1"
     transform="translate(-229.58984,-318.66188)">
    <path
       style="fill:#fffafa;fill-rule:evenodd;stroke:#000000;fill-opacity:1;stroke-opacity:1"
       d="m 384.02734,318.66188 0,3.09375 -3.71875,-0.625 -1.21875,2.46875 -3.09375,3.09375 -2.46875,2.46875 2.46875,2.46875 2.46875,1.84375 3.09375,0 0,1.84375 -3.09375,1.875 1.21875,1.21875 -1.84375,2.46875 -3.71875,0 -3.0625,-0.59375 -2.5,-1.875 -1.84375,-2.46875 -2.46875,1.25 -3.09375,3.09375 -1.21875,0.59375 -2.46875,0.625 -2.46875,0.625 -2.46875,0 -2.5,0 -1.21875,-0.625 -1.84375,-1.84375 -3.09375,0 -1.25,1.21875 -1.84375,1.25 -4.3125,1.21875 -2.5,-1.21875 1.25,-2.46875 -1.84375,-2.46875 -3.09375,0 0,2.46875 -1.25,2.46875 -1.84375,0 -3.71875,0 1.25,2.46875 0,1.84375 -1.84375,1.875 -2.46875,0 -0.625,1.84375 -0.625,2.46875 -4.3125,0 -3.09375,0 -2.46875,0.625 -1.875,-1.25 -0.59375,-2.46875 1.21875,-3.09375 -3.09375,1.25 -1.21875,-1.25 -4.3125,1.25 -2.5,-1.84375 -3.0625,1.84375 1.21875,2.46875 0,1.84375 -2.46875,0.625 -1.84375,2.46875 -2.46875,2.46875 -0.625,1.84375 0,0.625 3.09375,-1.21875 1.84375,0 2.46875,-0.625 2.46875,0 0,3.09375 -1.21875,0 -1.875,1.21875 0.625,1.25 -2.46875,0.625 -2.46875,1.21875 1.25,2.46875 0,1.25 -1.875,1.84375 -2.46875,1.84375 -1.21875,1.25 0,3.09375 -1.875,1.21875 -2.46875,0 -1.84375,1.875 -3.09375,3.0625 1.84375,2.46875 -1.84375,2.5 -1.84375,-0.625 -2.46875,3.09375 -3.09375,0.59375 -3.09375,1.25 -3.71875,1.84375 -1.84375,3.71875 1.84375,2.46875 0,3.6875 -2.46875,3.09375 2.46875,1.875 -0.59375,1.21875 -1.875,1.25 -3.0625,2.46875 -1.875,1.84375 -1.84375,0 -1.25,1.25 -2.46875,2.46875 -2.46875,2.46875 -3.6875,1.84375 -3.09375,3.09375 1.84375,1.84375 1.25,1.84375 -2.46875,2.5 -1.875,3.0625 -1.21875,4.34375 3.09375,3.6875 2.46875,1.875 -1.25,1.21875 -1.84375,1.875 0.625,1.84375 -0.625,1.84375 0,1.25 0,2.46875 -3.71875,0 -3.6875,1.21875 -3.09375,3.09375 3.09375,1.25 -2.46875,3.6875 2.61815,0.61774 5.48299,-0.87094 3.51367,0.25948 2.89593,-2.21147 4.09307,-3.65078 2.70315,-3.18748 -1.72289,-0.70113 -1.25958,-1.93662 -0.0241,-2.09105 0.13034,-2.24548 0.43921,-2.86324 1.98356,-1.93661 2.138,-1.31887 2.75574,-0.39226 2.138,-1.16445 1.82913,-0.23782 0.90251,-0.54669 1.36583,-0.0834 1.52025,0.53435 0.43921,-0.54669 0.90252,0.37991 0.90251,-1.01 2.57721,0.60539 2.42278,0.14209 2.1139,0.29653 3.65826,-0.0123 3.19495,-0.63009 3.34938,0.14209 -0.35706,2.92193 -1.72289,2.0787 -0.17853,2.69645 1.72781,1.68644 1.88225,2.61306 1.2645,2.45862 -1.05202,2.7675 -2.13308,1.99531 -0.12541,1.84088 -0.89759,2.14975 -1.05203,1.99532 0.8012,1.14592 2.49999,0.0649 1.88225,1.60923 0.95564,1.14592 -0.58872,1.76367 0.029,1.14592 0.029,1.14592 0.8012,1.14592 -1.23549,-0.83649 1.28125,0.1875 -0.6875,0.125 4.03125,0.65625 -0.21875,-0.28125 3.69783,3.61578 1.84461,1.60812 -0.44508,1.66815 0.3271,1.97702 0.48153,1.35928 0.63597,1.66815 1.25371,1.35928 0.94484,0.89597 0.94484,1.05041 0.94484,0.89597 2.66186,0.94255 2.97073,-1.21954 3.58847,-1.83728 1.42637,-2.14616 6.1688,1.60812 1.69664,-0.94928 1.85107,-0.64041 2.00551,-1.41259 0.61559,-2.64807 3.23452,-1.17173 1.15611,0.36342 1.15611,0.67229 1.46498,0.51786 1.31055,-1.48981 -0.21875,0.28125 2.28125,0.375 -0.375,-0.375 0.70229,1.18443 1.1656,1.33886 0.7023,1.64773 1.6289,0.72112 2.70996,-0.82324 1.6289,1.18443 2.09222,-0.35993 2.40108,-2.8309 -0.15625,0.34375 1.96318,-3.70701 5.05189,-5.5e-4 1.42107,-2.50503 0.73878,-2.50502 0.10123,-3.79889 2.83041,-1.41088 2.60297,-1.86573 1.46582,-3.1166 -0.73221,-9.38975 2.90669,-3.93142 3.36154,-4.84115 3.36155,-5.75086 5.18099,-3.93142 2.45182,5.62066 -0.27734,6.98523 -0.27734,4.25608 1.5421,6.07552 6.54558,3.34636 3.36153,4.71092 0.63909,0.7051 0.63909,0.7051 1.54881,0.0228 1.77625,0.13653 1.88995,0.0228 1.66253,0.13652 1.4351,0.93253 1.66253,0.13652 1.54881,0.36396 0.52537,1.04624 0.18423,1.15996 -0.8392,1.61482 -0.49806,1.15996 -1.29407,0.81881 -1.06664,1.04625 0.41166,1.27367 2.80974,1.74249 1.96893,1.96984 1.17981,2.27356 2.05667,2.05445 1.00433,1.21632 -7.8e-4,1.77918 -1.0863,1.73897 -3.9e-4,1.47256 1.84901,-0.0552 1.5381,-0.0303 1.45769,0.49237 0.97524,0.65319 1.85974,-0.1107 0,-1.84375 1.84375,-3.71875 0,-1.84375 -3.71875,-1.25 0,-3.0625 -2.46875,-1.25 3.09375,-4.3125 -1.21875,-1.25 3.0625,-3.71875 1.25,-1.21875 0,-3.09375 2.46875,-0.625 0.625,-3.09375 3.09375,-1.21875 0.59375,-1.25 0,-3.0625 2.46875,0 0,-2.46875 1.25,-3.71875 1.84375,-4.9375 -1.21875,-3.71875 -3.09375,-4.3125 1.21875,-1.875 1.25,0 0.625,-1.21875 0,-2.46875 2.46875,-0.625 4.3125,3.71875 3.09375,-4.34375 0,4.34375 0,4.9375 1.25,3.09375 2.46875,2.46875 3.0625,3.6875 3.09375,0.625 3.71875,-1.84375 2.46875,1.21875 1.84375,-1.21875 -2.46875,-3.09375 1.875,-0.625 1.84375,1.875 1.21875,-1.25 1.875,0 3.6875,-2.46875 3.09375,-0.625 3.09375,1.25 1.21875,3.09375 0,3.6875 2.5,-0.625 1.21875,1.875 0,4.3125 3.71875,-1.21875 2.46875,1.21875 1.84375,-3.71875 -1.84375,-3.0625 -2.46875,-4.34375 1.21875,-3.6875 1.25,-1.25 -1.25,-3.09375 -2.46875,0.625 -2.46875,-0.625 0,-6.15625 0.625,-4.34375 1.84375,-3.6875 2.46875,-2.46875 4.9375,-2.5 1.25,1.875 -0.625,3.6875 3.71875,1.875 2.46875,1.84375 2.46875,-1.84375 5.5625,0 0,-1.25 1.21875,-3.6875 -2.46875,-1.25 -0.625,-1.25 -3.0625,0 0,-2.46875 0.59375,-5.5625 1.875,-2.46875 1.21875,-0.59375 -1.84375,-1.875 -0.625,-1.21875 3.09375,-1.875 0,-3.0625 0,-2.46875 0.625,-4.34375 -1.25,-1.21875 -2.46875,-3.09375 -3.09375,-2.46875 -2.46875,2.46875 -1.21875,3.09375 0,3.6875 -1.25,-1.84375 -4.3125,0.625 0,3.6875 -3.09375,1.875 -1.84375,1.21875 -3.71875,-0.625 -2.46875,-3.0625 -6.1875,-2.46875 -2.46875,-0.625 -1.84375,-3.71875 0,-5.5625 -3.09375,2.46875 -3.09375,-2.46875 -3.6875,0 -3.09375,-2.46875 -2.46875,1.25 -6.1875,0 -3.71875,0 3.71875,-3.09375 0,-3.71875 -1.84375,-1.84375 -1.25,-3.71875 2.46875,-4.3125 3.71875,-5.5625 1.21875,-3.09375 3.09375,-2.46875 c 0,0 -0.002,0.009 2.46875,-1.84375 2.47097,-1.85323 -1.84375,-2.46875 -1.84375,-2.46875 l 0,-2.46875 -1.84375,-1.875 -3.71875,-1.84375 -0.625,-3.71875 -3.6875,-3.0625 -3.71875,-2.46875 -4.9375,-3.09375 -3.09375,-1.25 -2.46875,-3.09375 -3.09375,1.25 -4.3125,-1.25 -4.3125,0 -4.34375,0 -3.09375,2.46875 -1.84375,1.25 -1.25,-3.09375 0,-3.09375 -3.0625,-0.59375 -2.46875,-1.875 -0.625,1.875 1.84375,3.0625 -4.9375,-2.46875 1.25,-3.6875 -2.5,-1.875 -1.21875,-1.21875 -2.46875,-1.25 -2.46875,1.875 -2.46875,-3.09375 z m -37.3125,166.5625 -1.87137,2.68037 -3.26129,-0.56278 -1.40807,-0.71721 -2.79798,1.29045 -1.09919,-1.02609 -0.63589,-1.18052 -0.79032,-0.87164 -0.63589,-1.64383 1,1.03125 1.84375,4.3125 2.46875,-1.84375 4.34375,1.84375 2.46875,-2.46875 0.375,-0.84375 z m -13.85464,-2.40625 -3.05705,0.97195 -1.0494,-1.19015 -2.43931,0.35421 -2.43932,0.66308 -0.74052,3.28849 -5.52802,2.20743 -3.6748,-1.19014 -1.82158,0.0453 -3.98366,3.13405 -4.60142,1.43526 -4.1381,-1.96233 -1.97601,-2.42563 -1.5127,-3.96998 -1.0494,-3.35224 -2.28487,-2.2712 -1.97601,-2.42563 1.37681,1.90625 3.71875,3.09375 0,2.46875 1.21875,4.3125 4.34375,3.71875 0,1.21875 4.3125,-0.59375 2.46875,-1.25 c 0,0 2.48326,-0.62278 3.71875,-3.09375 1.23549,-2.47097 1.84375,0 1.84375,0 l 3.09375,1.84375 3.09375,-1.84375 3.09375,-0.625 1.21875,-3.6875 2.46875,0 0.625,-1.25 3.71875,1.875 1.95786,-1.40625 z m -46.45786,-7.34375 -0.59375,-0.0937 0,0.1875 0.59375,-0.0937 z"
       id="path3993"
       sodipodi:nodetypes="cccccccccccccccccccccccccccccccccccccccccccccccccccccccccccccccccccccccccccccccccccccccccccccccccccccccccccccccccccccccccccccccccccccccccccccccccccccccccccccccccccccccccccccccccccccccccccccccccccccccccccccccccccccccccccccccccccccccccccccccccccccccccccccccccccccccccccccccccccccccccccccccccccccccccccccccccccccccccccccccccccccccccccccccccccccccccccccccccccccccccccccccccccccccccscccccccccccccccccccccccccccccccccccccccccccccccccccccccccccccccccccccsccccccccccccc"
       inkscape:export-filename="C:\Documents and Settings\MARTIAL\Mes documents\Mes images\SUISSE\SVG\CARTE DRAPEAU SUISSE.png"
       inkscape:export-xdpi="90"
       inkscape:export-ydpi="90" />
    <path
       style="fill:none;stroke:none"
       d="m 230.81746,467.53042 0,0 z"
       id="path3991" />
  </g>
</svg>
