<?xml version="1.0" encoding="UTF-8" standalone="no"?>
<!-- Created with Inkscape (http://www.inkscape.org/) -->

<svg
   xmlns:dc="http://purl.org/dc/elements/1.1/"
   xmlns:cc="http://creativecommons.org/ns#"
   xmlns:rdf="http://www.w3.org/1999/02/22-rdf-syntax-ns#"
   xmlns:svg="http://www.w3.org/2000/svg"
   xmlns="http://www.w3.org/2000/svg"
   xmlns:sodipodi="http://sodipodi.sourceforge.net/DTD/sodipodi-0.dtd"
   xmlns:inkscape="http://www.inkscape.org/namespaces/inkscape"
   width="503.49005"
   height="583.55847"
   id="svg2"
   version="1.1"
   inkscape:version="0.48.4 r9939"
   sodipodi:docname="drawing27.svg">
  <defs
     id="defs4" />
  <sodipodi:namedview
     id="base"
     pagecolor="#ffffff"
     bordercolor="#666666"
     borderopacity="1.0"
     inkscape:pageopacity="0.0"
     inkscape:pageshadow="2"
     inkscape:zoom="0.98994949"
     inkscape:cx="159.49941"
     inkscape:cy="242.61149"
     inkscape:document-units="px"
     inkscape:current-layer="layer1"
     showgrid="false"
     inkscape:window-width="1481"
     inkscape:window-height="864"
     inkscape:window-x="988"
     inkscape:window-y="155"
     inkscape:window-maximized="0"
     fit-margin-top="0"
     fit-margin-left="0"
     fit-margin-right="0"
     fit-margin-bottom="0" />
  <metadata
     id="metadata7">
    <rdf:RDF>
      <cc:Work
         rdf:about="">
        <dc:format>image/svg+xml</dc:format>
        <dc:type
           rdf:resource="http://purl.org/dc/dcmitype/StillImage" />
        <dc:title></dc:title>
      </cc:Work>
    </rdf:RDF>
  </metadata>
  <g
     inkscape:label="Layer 1"
     inkscape:groupmode="layer"
     id="layer1"
     transform="translate(-90.511016,-121.27862)">
    <path
       style="fill:none;stroke:#000000;stroke-width:1px;stroke-linecap:butt;stroke-linejoin:miter;stroke-opacity:1"
       d="m 240.92138,398.79349 c -8.33997,-2.90332 -27.02446,-19.2993 -37.37564,-25.75889 -10.35118,-6.45959 -12.85094,-6.1302 -24.24366,-13.63706 -11.39272,-7.50686 -32.84809,-25.78567 -42.93149,-32.82996 -10.0834,-7.04429 -11.21432,-9.12368 -16.66751,-10.6066 -5.45319,-1.48292 -10.0154,-1.01064 -14.14214,0.50507 -4.12674,1.51571 -6.408294,2.14208 -9.596448,7.57615 -3.188154,5.43407 -6.641153,18.10797 -4.04061,25.25381 2.600543,7.14584 3.087227,2.87833 15.152288,13.13198 12.06506,10.25365 42.78166,36.5389 57.57869,47.98225 14.79703,11.44335 21.32539,13.38597 30.30458,21.71828 8.97919,8.33231 17.12494,18.30936 23.23351,27.77919 6.10857,9.46983 8.74407,17.85027 13.63706,28.28428 4.89299,10.43401 8.81896,16.68698 15.65736,34.34518 6.8384,17.6582 18.36614,57.88124 23.23351,72.22591 4.86737,14.34467 3.43151,8.92409 5.05077,14.14213 1.61926,5.21804 4.10292,10.32116 4.54568,17.1726 0.44276,6.85144 -1.82145,16.24567 -3.03046,23.23351 -6.21668,31.63995 -5.695,15.62548 -7.57614,36.36549 98.31837,16.07481 170.93516,33.27482 186.87822,-2.02031 -9.53037,-11.83832 8.26366,-52.46547 13.63706,-72.2259 5.3734,-19.76043 9.29265,-28.71536 16.66752,-46.46702 7.37487,-17.75166 21.06872,-45.81564 28.28427,-59.599 7.21555,-13.78336 8.43019,-8.56827 13.63706,-23.73859 5.20687,-15.17032 4.9331,-47.94877 9.59645,-68.18529 4.66335,-20.23652 12.5567,-40.73341 17.17259,-53.03301 4.61589,-12.2996 5.06417,-15.62576 9.09137,-21.2132 4.0272,-5.58744 8.80495,-6.78421 13.63706,-12.12184 4.83211,-5.33763 13.39384,-14.46235 14.64721,-20.20305 1.25337,-5.7407 0.22131,-6.43941 -2.0203,-10.10152 -2.24161,-3.66211 -5.05175,-8.33302 -12.12183,-9.59645 -7.07008,-1.26343 -17.20363,4.74925 -26.26397,8.5863 -9.06034,3.83705 -17.76309,5.97496 -27.77919,14.64721 -10.0161,8.67225 -21.75203,26.68095 -28.28427,38.89087 -6.53224,12.20992 -8.78121,24.96664 -12.12183,32.82996 -3.34062,7.86332 -4.92303,11.16501 -7.07107,14.64721 -2.14804,3.4822 -2.84144,6.42251 -5.05076,6.56599 -2.20932,0.14348 3.35978,8.51065 -3.53554,-3.53553 -6.89532,-12.04618 -13.94533,-54.30267 -19.69797,-75.76144 -5.75264,-21.45877 -9.26597,-36.95525 -14.64722,-53.03301 -5.38125,-16.07776 -13.21437,-27.9212 -17.17259,-43.43656 -3.95822,-15.51536 -3.56704,-35.18963 -6.06091,-48.9924 -2.49387,-13.80277 -3.44616,-24.45663 -8.08122,-33.84011 -4.63506,-9.38348 -10.33674,-19.16712 -17.67767,-21.71828 -7.34093,-2.55116 -12.06088,-1.12934 -18.18275,4.04061 -6.12187,5.16995 -9.37027,15.73625 -11.11168,27.27412 -1.74141,11.53787 1.45032,28.68407 3.53554,40.4061 2.08522,11.72203 6.64401,18.42999 8.08122,29.7995 1.43721,11.36951 -1.33767,25.12956 -0.50508,37.88072 0.83259,12.75116 3.25389,27.44321 5.55584,38.3858 2.30195,10.94259 7.24547,21.02894 7.57614,27.27412 0.33067,6.24518 8.474,7.45466 -1.51523,9.09137 -9.98923,1.63671 -16.39803,-35.32263 -24.24366,-45.45686 -7.84563,-10.13423 -12.27331,-13.11372 -18.68782,-17.1726 -6.41451,-4.05888 -12.35143,-7.2619 -18.68782,-7.57614 -6.33639,-0.31424 -12.11536,1.64145 -17.17259,5.05076 -5.05723,3.40931 -9.02711,8.40304 -11.61676,14.64721 -2.58965,6.24417 -4.44475,10.63452 -2.52538,21.71828 1.91937,11.08376 15.11459,31.75189 20.20305,40.91118 5.08846,9.15929 13.03995,11.2613 9.09137,14.64721 -3.94858,3.38591 -4.98731,-2.43741 -10.6066,-9.09137 -5.61929,-6.65396 -14.52604,-23.70818 -19.69797,-32.82996 -5.17193,-9.12178 -4.43587,-9.69527 -11.61676,-21.71828 -7.18089,-12.02301 -25.07783,-34.97136 -32.82995,-49.49747 -7.75212,-14.52611 -10.61775,-27.07805 -15.15229,-36.36549 -4.53454,-9.28744 -6.59371,-16.07192 -11.11168,-19.69798 -4.51797,-3.62606 -7.26786,-3.36851 -11.61675,-3.53553 -4.34889,-0.16702 -9.00827,0.30958 -13.63706,3.03045 -4.62879,2.72087 -9.55387,8.36477 -12.12183,13.63706 -2.56796,5.27229 -4.66323,7.53555 -3.03046,16.66752 1.63277,9.13197 14.76542,24.72822 19.69797,33.33504 4.93255,8.60682 5.04563,7.678 10.10153,18.18274 5.0559,10.50474 14.41681,34.92533 18.68782,45.45687 4.27101,10.53154 4.01095,12.68277 7.07107,17.67767 3.06012,4.9949 6.36335,6.06652 10.6066,12.12183 4.24325,6.05531 10.68054,17.99608 13.63706,24.74873 2.95652,6.75265 5.26462,11.29096 5.05076,15.15229 -0.21386,3.86133 -1.14815,5.06014 -3.03046,6.56599 -1.88231,1.50585 -4.60675,1.33684 -7.07106,1.51523 -2.46431,0.17839 0.76382,2.39825 -7.57615,-0.50507 z"
       id="path3068"
       inkscape:connector-curvature="0"
       sodipodi:nodetypes="zzzzzzzzzzzzzzzzzccczzzzzzzzzzzzzzzzzzzzzzzzzzzzzzzzzzzzzzzzzzzzzzzzzzzzzzzzzzzz" />
    <path
       style="fill:none;stroke:#000000;stroke-width:1px;stroke-linecap:butt;stroke-linejoin:miter;stroke-opacity:1"
       d="m 106.57109,316.97113 c 16.16244,13.63706 16.66752,19.69797 16.66752,19.69797 l -4.04061,12.12183 -12.12183,4.54569 -12.626907,-9.59645 -1.010153,-0.50507 -1.010152,1.01015"
       id="path3070"
       inkscape:connector-curvature="0" />
    <path
       style="fill:none;stroke:#000000;stroke-width:1px;stroke-linecap:butt;stroke-linejoin:miter;stroke-opacity:1"
       d="m 177.78685,205.85435 14.14213,22.72843 12.12183,1.01015 7.07107,-7.07106 1.01015,-15.65737 -9.09137,-16.16244"
       id="path3072"
       inkscape:connector-curvature="0" />
    <path
       style="fill:none;stroke:#000000;stroke-width:1px;stroke-linecap:butt;stroke-linejoin:miter;stroke-opacity:1"
       d="m 365.17015,130.59798 5.05076,20.70813 13.63706,11.61676 13.63706,-4.54569 -1.51523,-19.1929 0,-2.52538"
       id="path3074"
       inkscape:connector-curvature="0" />
    <path
       style="fill:none;stroke:#000000;stroke-width:1px;stroke-linecap:butt;stroke-linejoin:miter;stroke-opacity:1"
       d="m 593.46462,305.35437 -12.62691,-1.51522 -12.6269,21.2132 0,10.6066"
       id="path3076"
       inkscape:connector-curvature="0" />
    <path
       style="fill:none;stroke:#000000;stroke-width:1px;stroke-linecap:butt;stroke-linejoin:miter;stroke-opacity:1"
       d="m 233.34524,326.0625 c 0,0 12.35659,-10.67563 18.18274,-14.14213 5.82615,-3.4665 13.53726,-5.27932 16.16244,-7.07107 2.62518,-1.79175 1.01016,-1.01015 1.01016,-1.01015"
       id="path3078"
       inkscape:connector-curvature="0"
       sodipodi:nodetypes="czzc" />
    <path
       style="fill:none;stroke:#000000;stroke-width:1px;stroke-linecap:butt;stroke-linejoin:miter;stroke-opacity:1"
       d="m 200.0102,371.51937 0,0 c 0,0 -3.63297,-0.20003 -7.07106,2.0203 -3.43809,2.22033 -7.65908,7.08083 -11.11168,13.13199 -3.4526,6.05116 -8.08122,23.2335 -8.08122,23.2335"
       id="path3080"
       inkscape:connector-curvature="0"
       sodipodi:nodetypes="czzzc" />
    <path
       style="fill:none;stroke:#000000;stroke-width:1px;stroke-linecap:butt;stroke-linejoin:miter;stroke-opacity:1"
       d="m 134.35029,375.55998 c 0,0 4.18943,-8.38375 7.07107,-12.12183 2.88164,-3.73808 10.10152,-10.10153 10.10152,-10.10153"
       id="path3082"
       inkscape:connector-curvature="0"
       sodipodi:nodetypes="czc" />
    <path
       style="fill:none;stroke:#000000;stroke-width:1px;stroke-linecap:butt;stroke-linejoin:miter;stroke-opacity:1"
       d="m 213.14219,259.39243 c 0,0 6.34014,-8.91242 9.09137,-11.11167 2.75123,-2.19925 6.06092,-3.03046 6.06092,-3.03046"
       id="path3084"
       inkscape:connector-curvature="0"
       sodipodi:nodetypes="czc" />
    <path
       style="fill:none;stroke:#000000;stroke-width:1px;stroke-linecap:butt;stroke-linejoin:miter;stroke-opacity:1"
       d="m 377.79705,184.64115 c 0,0 16.10371,11.2217 21.21321,10.10152 5.1095,-1.12018 5.05076,-6.06091 5.05076,-6.06091"
       id="path3086"
       inkscape:connector-curvature="0"
       sodipodi:nodetypes="czc" />
    <path
       style="fill:none;stroke:#000000;stroke-width:1px;stroke-linecap:butt;stroke-linejoin:miter;stroke-opacity:1"
       d="m 386.88842,253.33152 c 0,0 18.17326,1.25943 23.23351,1.01015 5.06025,-0.24928 7.07107,-1.01015 7.07107,-1.01015"
       id="path3088"
       inkscape:connector-curvature="0"
       sodipodi:nodetypes="czc" />
    <path
       style="fill:none;stroke:#000000;stroke-width:1px;stroke-linecap:butt;stroke-linejoin:miter;stroke-opacity:1"
       d="m 542.45192,345.2554 12.12183,15.15229"
       id="path3090"
       inkscape:connector-curvature="0" />
    <path
       style="fill:none;stroke:#000000;stroke-width:1px;stroke-linecap:butt;stroke-linejoin:miter;stroke-opacity:1"
       d="m 535.38085,356.36708 14.14213,16.16244"
       id="path3092"
       inkscape:connector-curvature="0" />
  </g>
</svg>
