<?xml version="1.0" encoding="UTF-8" standalone="no"?>
<!-- Created with Inkscape (http://www.inkscape.org/) -->

<svg
   xmlns:dc="http://purl.org/dc/elements/1.1/"
   xmlns:cc="http://creativecommons.org/ns#"
   xmlns:rdf="http://www.w3.org/1999/02/22-rdf-syntax-ns#"
   xmlns:svg="http://www.w3.org/2000/svg"
   xmlns="http://www.w3.org/2000/svg"
   xmlns:sodipodi="http://sodipodi.sourceforge.net/DTD/sodipodi-0.dtd"
   xmlns:inkscape="http://www.inkscape.org/namespaces/inkscape"
   width="744.09448819"
   height="1052.3622047"
   id="svg3952"
   version="1.1"
   inkscape:version="0.48.4 r9939"
   sodipodi:docname="doggy2.svg">
  <defs
     id="defs3954" />
  <sodipodi:namedview
     id="base"
     pagecolor="#ffffff"
     bordercolor="#666666"
     borderopacity="1.0"
     inkscape:pageopacity="0.0"
     inkscape:pageshadow="2"
     inkscape:zoom="3.959798"
     inkscape:cx="369.14804"
     inkscape:cy="225.7382"
     inkscape:document-units="px"
     inkscape:current-layer="layer1"
     showgrid="false"
     inkscape:window-width="1247"
     inkscape:window-height="843"
     inkscape:window-x="2109"
     inkscape:window-y="208"
     inkscape:window-maximized="0" />
  <metadata
     id="metadata3957">
    <rdf:RDF>
      <cc:Work
         rdf:about="">
        <dc:format>image/svg+xml</dc:format>
        <dc:type
           rdf:resource="http://purl.org/dc/dcmitype/StillImage" />
        <dc:title />
      </cc:Work>
    </rdf:RDF>
  </metadata>
  <g
     inkscape:label="Layer 1"
     inkscape:groupmode="layer"
     id="layer1">
    <path
       style="fill:#000000"
       d="m 443.85714,921.25352 c -52.94042,-1.89619 -75,-4.98091 -75,-10.48768 0,-2.80915 5.13419,-6.3114 14.35304,-9.79082 4.75583,-1.79497 8.64696,-3.64773 8.64696,-4.11726 0,-0.46953 -2.5875,-1.57454 -5.75,-2.4556 -11.4434,-3.18805 -12.47709,-4.27751 -6.5,-6.8506 6.61517,-2.84777 12.25302,-3.86987 28.25,-5.12147 4.06373,-0.31795 4.47143,-0.58068 4.20531,-2.71001 -0.16208,-1.29685 -1.85963,-5.59103 -3.77234,-9.5426 -4.14554,-8.5645 -10.18672,-14.33119 -18.12467,-17.30116 l -5.48589,-2.05254 -5.41455,4.94859 c -5.94422,5.43269 -14.13404,9.08979 -20.35592,9.08979 -3.66828,0 -4.00994,0.27472 -6.46249,5.19634 -1.4242,2.85799 -2.58909,6.57049 -2.58866,8.25 10e-4,4.13846 4.65933,13.5794 10.87096,22.03225 3.18861,4.3391 5.12825,8.00217 5.12825,9.68488 0,2.53854 -0.60561,2.90479 -9.77042,5.90881 -9.1567,3.00136 -10.3248,3.15634 -18.59599,2.46736 -8.59516,-0.71598 -8.92636,-0.83903 -12.68631,-4.7134 -4.78504,-4.93066 -5.56935,-7.2279 -3.53021,-10.34002 0.87061,-1.32872 1.58293,-2.5713 1.58293,-2.76128 0,-0.18999 -3.7125,-0.44632 -8.25,-0.56962 -10.77176,-0.29273 -11.75,-0.63937 -11.75,-4.16369 0,-1.58048 0.43831,-3.14448 0.97402,-3.47557 1.49758,-0.92556 3.87269,-9.8671 3.34886,-12.60738 -0.4659,-2.43718 -0.47404,-2.43864 -13.49525,-2.42366 l -13.02908,0.015 0.58396,4.26723 c 0.75116,5.48912 2.92903,9.68721 7.77362,14.98458 2.13862,2.3385 4.4247,5.42886 5.08017,6.86747 1.04236,2.28774 0.91881,2.8367 -0.98551,4.37873 -4.63055,3.74959 -27.72565,8.47562 -30.49927,6.24117 -0.68834,-0.55453 -2.63166,-1.30286 -4.3185,-1.66297 -3.88787,-0.82997 -9.68302,-6.87908 -9.68302,-10.10735 0,-3.59626 2.75177,-7.17404 7.30396,-9.49639 l 4.02471,-2.05325 -2.06038,-2.89354 c -3.07855,-4.32341 -5.01735,-10.65034 -5.02599,-16.40141 -0.007,-4.91833 -0.16666,-5.21504 -3.9628,-7.38272 -2.36503,-1.35049 -5.07563,-4.16469 -6.7423,-7 -2.5835,-4.39502 -2.78588,-5.52119 -2.7691,-15.4093 l 0.0181,-10.66775 -4.5181,-0.4159 c -3.28179,-0.30209 -5.06537,0.0538 -6.5181,1.30078 -3.8137,3.27344 -8.94011,5.21625 -15.06014,5.70751 -7.46081,0.59888 -12.45437,-0.89238 -16.16981,-4.8289 -1.92809,-2.04284 -3.72386,-2.92801 -5.94008,-2.92801 -3.80945,0 -8.57184,-3.7071 -11.40245,-8.87579 -1.09162,-1.99332 -3.53464,-5.55563 -5.42893,-7.91626 -1.89428,-2.36063 -3.95644,-6.18563 -4.58257,-8.5 -1.53422,-5.67093 -0.57946,-14.91834 1.98987,-19.27302 1.15176,-1.95209 2.09851,-4.98603 2.10388,-6.74209 0.0163,-5.33176 4.58372,-13.46624 11.69993,-20.83734 8.18299,-8.47611 12.44144,-11.28537 15.8212,-10.4371 2.15915,0.54191 2.4691,1.17404 2.4691,5.03555 0,2.42872 -0.46259,5.63256 -1.02798,7.11964 -0.56539,1.48708 -0.88189,2.84987 -0.70334,3.02843 0.17856,0.17855 2.55365,-0.41794 5.27798,-1.32553 3.86233,-1.28671 8.6039,-1.63007 21.52742,-1.55893 l 16.57408,0.0912 1.88446,-3.49922 c 2.54728,-4.73002 10.42533,-11.6542 14.78042,-12.99082 12.24107,-3.75689 21.77895,3.64264 21.89888,16.98925 0.0496,5.52461 -1.07122,8.66261 -4.403,12.32682 -1.93389,2.12684 -1.93021,2.14262 0.98465,4.21818 1.60919,1.14585 3.55145,3.3658 4.31612,4.93322 0.76467,1.56743 3.02539,4.28234 5.02383,6.03314 l 3.63351,3.18327 9.86649,-2.13539 c 7.00823,-1.51678 13.70345,-2.16897 23.11146,-2.25132 l 13.24499,-0.11593 0.005,-3.59501 c 0.006,-4.47859 2.49812,-6.90626 7.08376,-6.90125 6.99222,0.008 12.25528,5.48416 13.76407,14.32232 0.62918,3.68561 1.23502,4.42931 5.18481,6.36457 5.45707,2.67382 5.97239,2.7354 5.97239,0.7137 0,-5.16263 7.13843,-10.40429 14.16922,-10.40429 2.27275,0 4.07648,-0.97586 6.59285,-3.56687 2.6898,-2.7696 4.16527,-3.51969 6.60102,-3.35578 1.7253,0.1161 4.43803,-0.14355 6.02828,-0.57702 l 2.89137,-0.78811 c 25.23898,-6.87947 16.42901,80.79865 19.24659,97.88251 2.81758,17.08386 0.54682,4.09472 0.54682,4.09472 l 18.71201,0.64588 c 21.48506,0.7416 30.68628,1.89618 36.85409,4.62449 5.19203,2.29669 5.53197,4.36078 1.10792,6.72736 l -3.25,1.73853 6,0.84138 c 24.70745,3.46472 31.19961,7.87945 23.26122,15.81784 -6.90908,6.90908 -18.3941,9.7724 -41.26122,10.28678 -8.8,0.19795 -20.275,0.20679 -25.5,0.0197 z m 48.79958,-3.80056 c 15.10442,-3.81404 22.93522,-12.09098 15.21592,-16.08278 -1.64147,-0.84884 -9.05619,-2.28998 -16.47714,-3.20254 -7.42095,-0.91255 -14.03649,-1.99531 -14.7012,-2.40612 -1.79062,-1.10667 0.61337,-3.61977 4.22047,-4.41202 3.42345,-0.75191 4.7472,-2.37189 2.88076,-3.52541 -3.33721,-2.06251 -19.91218,-4.14014 -37.33485,-4.67981 l -18.89646,-0.58533 0.68208,2.71762 c 0.6464,2.57545 0.51343,2.70109 -2.54167,2.40161 -3.15899,-0.30967 -3.28789,-0.52193 -6.4157,-10.5644 -1.7678,-5.67588 -4.44679,-11.89358 -6.00447,-13.93579 -1.70149,-2.23077 -2.36361,-3.83707 -1.6761,-4.06624 0.62503,-0.20834 0.95282,-0.91223 0.7284,-1.5642 -0.31239,-0.90757 -3.47962,-40.96402 -3.47962,-44.00735 0,-0.3457 -1.20318,-0.17109 -2.67372,0.38801 -3.85331,1.46502 -8.00268,0.2211 -12.34323,-3.70033 l -3.79218,-3.426 -1.21026,7.17521 c -0.90433,5.36152 -0.92846,8.11578 -0.0954,10.89617 1.53617,5.12729 1.39522,11.74673 -0.37436,17.57997 -0.81904,2.69991 -1.49404,4.95875 -1.5,5.01964 -0.006,0.0609 2.2041,0.37303 4.91123,0.69365 7.08621,0.83926 20.83012,8.26629 18.89407,10.21011 -0.37614,0.37765 -1.72614,-0.31511 -3,-1.53946 -3.58522,-3.44587 -12.68745,-7.26888 -18.26927,-7.67324 l -5.04685,-0.3656 6.5,2.72462 c 9.45707,3.96414 16.78261,11.59307 20.30544,21.14642 1.51044,4.09608 2.64358,9.14972 2.57856,11.5 -0.0638,2.30603 -0.33316,3.34629 -0.59857,2.31169 -0.44089,-1.71862 -1.27304,-1.83623 -9.634,-1.36162 -9.90029,0.56199 -23.65146,3.35147 -23.65146,4.79779 0,0.49212 3.375,1.87542 7.5,3.07399 10.51134,3.05419 10.02741,5.11009 -2.18015,9.26215 -17.70429,6.02162 -18.3759,9.98241 -2.21391,13.05634 22.36814,4.25431 95.66218,5.68636 109.69364,2.14325 z m -137.24707,-3.77029 c 4.48532,-1.49813 7.05679,-2.91326 7.2559,-3.99307 0.16963,-0.91991 -2.24066,-5.37348 -5.3562,-9.89683 -11.38533,-16.52997 -12.59494,-21.23802 -7.88496,-30.68972 2.42628,-4.8689 8.35989,-11.24089 10.46755,-11.24089 1.32473,0 1.21119,1.35401 -0.2348,2.8 -2.00196,2.00196 4.09945,1.42851 9.14254,-0.85927 11.76316,-5.33634 18.35158,-14.9551 18.35158,-26.79241 0,-3.70163 -0.56983,-7.79497 -1.26629,-9.09631 -1.4692,-2.74523 -0.87557,-9.83568 1.49041,-17.80201 1.41644,-4.7692 1.82503,-5.25 4.46148,-5.25 3.65001,0 4.86272,1.75281 1.95653,2.82788 -2.17238,0.80361 -2.1638,0.84337 0.94654,4.38584 6.34458,7.22608 10.46676,5.90822 18.10151,-5.78705 7.95133,-12.18022 7.73349,-17.2081 -0.69552,-16.05277 -4.17838,0.57271 -6.03466,-0.76671 -2.78878,-2.01227 2.55642,-0.98099 1.65293,-2.36163 -1.54545,-2.36163 -1.91516,0 -3.97332,0.92786 -5.54546,2.5 -3.02222,3.02222 -3.81202,3.14882 -3.11934,0.5 0.31724,-1.21315 0.0307,-2 -0.72838,-2 -1.67173,0 -5.33501,4.19427 -4.06137,4.65007 2.56918,0.91943 7.5,4.42703 7.5,5.33523 0,1.40767 -0.48886,1.29615 -4.19326,-0.95663 -6.74237,-4.10028 -16.17434,-3.52625 -20.54475,1.25035 -3.66574,4.00643 -3.69532,6.29062 -0.14551,11.23365 2.33117,3.24609 2.94235,4.8285 2.16512,5.60573 -0.77723,0.77723 -1.26416,0.5119 -1.72496,-0.93995 -1.49091,-4.69744 -11.48102,-11.14688 -17.30664,-11.17287 -0.70302,-0.003 -1.25,-1.23892 -1.25,-2.82408 0,-4.51153 -2.80111,-12.69153 -5.03977,-14.7175 -2.39496,-2.1674 -8.05169,-2.46291 -10.36678,-0.54156 -2.56948,2.13248 -1.8627,6.44962 2.40655,14.69975 4.54713,8.78711 5.10777,12.37781 1.93261,12.37781 -1.61477,0 -1.92792,-0.43943 -1.43033,-2.00717 0.35997,-1.13417 -0.10235,-3.41762 -1.06293,-5.25 -0.93499,-1.78356 -2.55184,-4.93033 -3.593,-6.99283 -1.76023,-3.48693 -2.22461,-3.7617 -6.61969,-3.91682 -10.26949,-0.36246 -20.17921,0.42452 -29.72666,2.36071 -14.57882,2.95654 -21.25338,5.26901 -28,9.7009 -7.43402,4.88344 -21.64594,17.98724 -24.47772,22.56917 -1.16011,1.87709 -3.85548,4.2281 -5.98971,5.22447 -3.67829,1.71721 -3.93988,2.14792 -5.02184,8.26873 -1.4471,8.18639 -0.54043,14.82559 2.70899,19.83693 3.00268,4.63083 8.02948,8.08425 8.75851,6.01711 3.06495,-8.69055 4.19535,-9.05042 2.41958,-0.77031 -2.2391,10.44056 0.33877,20.60322 7.21192,28.43131 l 3.09745,3.5278 -2.63571,0 c -6.46578,0 -11.61926,4.10451 -11.53143,9.18426 0.0388,2.24533 0.085,2.23289 1.51876,-0.40912 1.47557,-2.71905 4.26534,-4.77514 6.47905,-4.77514 0.64313,0 -0.22728,1.59066 -1.93426,3.5348 -4.18703,4.76877 -3.99247,7.45013 0.64563,8.89756 1.84889,0.57699 2.43974,0.20083 3.31961,-2.11339 1.47247,-3.87289 3.86853,-6.31897 6.18975,-6.31897 1.70728,0 1.55748,0.44547 -1.20963,3.59703 -3.5699,4.06589 -3.63986,6.74497 -0.18895,7.2356 4.13893,0.58845 25.14558,-5.75965 25.13626,-7.59605 -0.008,-1.63772 -4.02135,-7.17964 -5.9441,-8.20866 -1.13017,-0.60485 -3.25946,-3.44607 -4.73176,-6.31383 -4.96797,-9.67664 -2.88059,-23.68003 4.22367,-28.33492 3.85788,-2.52778 3.85271,-1.16975 -0.0174,4.58127 -1.93964,2.8823 -3.52662,5.82613 -3.52662,6.54186 0,3.30119 19.72395,2.59233 30.67172,-1.10232 8.48697,-2.86418 9.86917,-3.89929 10.09802,-7.56221 0.36598,-5.85781 2.36059,-11.56986 5.23885,-15.00268 1.53797,-1.8343 3.03781,-3.09999 3.33297,-2.81265 0.29516,0.28734 -0.76572,3.21234 -2.35752,6.5 -1.5918,3.28766 -3.17953,8.24631 -3.5283,11.01923 -1.35059,10.73792 4.15899,26.5223 11.31724,32.42273 2.46309,2.03029 3.13004,3.0356 2.01388,3.0356 -0.91785,0 -1.94694,-0.45 -2.28686,-1 -0.94027,-1.52138 -5.77816,-1.1939 -8.28321,0.5607 -2.66442,1.86624 -5.54728,7.09554 -4.6828,8.49429 0.34093,0.55164 1.87709,-0.35404 3.44207,-2.02937 1.5545,-1.66409 3.80534,-3.02562 5.00188,-3.02562 2.02463,0 1.97043,0.17256 -0.78148,2.48815 -1.62635,1.36848 -3.18614,3.36437 -3.46619,4.4353 -0.71768,2.74441 1.92895,6.07655 4.82643,6.07655 1.89646,0 2.4433,-0.52485 2.4433,-2.34501 0,-1.28976 0.94032,-3.19599 2.0896,-4.23608 l 2.0896,-1.89106 -0.68872,3.67119 c -0.37879,2.01915 -0.35827,4.20586 0.0456,4.85935 1.0053,1.62662 8.33052,0.66326 17.01642,-2.23788 z m -1.68007,-15.57051 c -1.24387,-1.58606 -1.2085,-1.62143 0.37756,-0.37756 0.9625,0.75485 1.75,1.54235 1.75,1.75 0,0.82304 -0.82119,0.29331 -2.12756,-1.37244 z m 12.51095,-68.75 c -0.4177,-1.1 -1.46233,-2.57629 -2.32142,-3.28064 -1.35521,-1.11112 -1.24075,-1.24349 0.86464,-1 1.99621,0.23086 2.57936,-0.30212 3.28783,-3.005 1.03995,-3.96754 3.23842,-3.22868 2.42939,0.81647 -0.38259,1.91299 -0.10031,2.96376 0.89926,3.34733 0.8013,0.30749 1.45691,1.00907 1.45691,1.55907 0,0.55 -0.69662,0.73268 -1.54804,0.40596 -0.89715,-0.34427 -2.12852,0.19451 -2.92858,1.28138 -1.34274,1.82408 -1.40133,1.82067 -2.13999,-0.12457 z m -38.14901,66.60145 2.73438,-1.04007 -2.18915,-3.71033 -2.18914,-3.71033 -1.21423,2.92964 c -0.997,2.40551 -1.33449,2.62393 -1.8864,1.22088 -0.36969,-0.93982 -0.14181,-3.31576 0.50641,-5.27987 0.86658,-2.62577 0.89071,-4.39687 0.0912,-6.69047 -0.59811,-1.71564 -1.08745,-4.39255 -1.08745,-5.94868 0,-2.64547 -0.16043,-2.75624 -2.46864,-1.70455 -1.35776,0.61863 -2.18823,1.57851 -1.84549,2.13307 0.34929,0.56517 0.12592,0.70097 -0.50829,0.30901 -0.62229,-0.38459 -2.88627,-0.22674 -5.03107,0.3508 -3.89677,1.04929 -3.89927,1.0533 -3.40423,5.4453 0.37874,3.36021 -0.1213,5.74228 -2.12344,10.11553 -1.44036,3.14617 -2.61884,6.13705 -2.61884,6.64641 0,1.20812 19.62235,0.30755 23.23438,-1.06634 z m -18.67009,-1.39458 c 0.37553,-0.98622 0.93469,-1.54122 1.24258,-1.23333 0.30789,0.30789 6.4e-4,1.11479 -0.68278,1.79313 -0.98762,0.98026 -1.10248,0.8654 -0.5598,-0.5598 z m 2.46634,-4.20687 c 0,-0.55 0.43621,-1.675 0.96937,-2.5 0.53316,-0.825 0.96937,-1.05 0.96937,-0.5 0,0.55 -0.43621,1.675 -0.96937,2.5 -0.53316,0.825 -0.96937,1.05 -0.96937,0.5 z m 1.04832,-12.08333 c 0.048,-1.16495 0.28494,-1.4019 0.60416,-0.60417 0.28887,0.72187 0.25335,1.58437 -0.0789,1.91667 -0.3323,0.33229 -0.56864,-0.25834 -0.52522,-1.3125 z m 111.65281,-0.16667 c -0.30471,-4.2625 -1.53024,-22.375 -2.72339,-40.25 -1.19316,-17.875 -2.38804,-34.01313 -2.6553,-35.86252 l -0.48591,-3.36252 -3.59016,5.73961 -3.59015,5.73962 1.232,21.62291 c 1.5891,27.89048 1.66637,28.44342 5.04797,36.1229 1.57423,3.575 3.4223,9.0875 4.10684,12.25 1.81602,8.38995 3.31995,7.25837 2.6581,-2 z M 223.16136,831.88418 c 2.58268,-1.63788 4.69578,-3.34419 4.69578,-3.79179 0,-1.19065 -8.09885,-8.79068 -10.90064,-10.22924 -7.1537,-3.67303 -20.09936,1.44796 -20.09936,7.95082 0,3.17842 2.46855,6.89098 5.357,8.05661 1.17865,0.47564 5.3174,0.89333 9.19722,0.92819 6.16859,0.0554 7.64375,-0.31048 11.75,-2.91459 z m 21.92722,-6.3246 c 2.28008,-1.24949 4.49706,-3.59229 5.69984,-6.02331 1.81573,-3.66993 1.85202,-4.2575 0.46787,-7.57629 -2.07717,-4.98047 -6.62869,-9.40852 -13.35706,-12.9947 -11.15929,-5.94784 -22.6485,-7.46306 -34.82357,-4.5926 -12.158,2.86643 -18.99587,8.05095 -21.25354,16.11458 -1.04598,3.73586 -0.98041,5.04598 0.4385,8.76135 2.00976,5.26247 4.17407,7.37906 8.41214,8.22667 3.68779,0.73756 3.88438,0.0328 1.97854,-7.09293 -1.5415,-5.76347 -0.20561,-7.67503 3.61444,-5.17203 2.03958,1.33638 2.98841,1.42807 5.05135,0.48814 3.26608,-1.48813 3.24181,-2.5863 -0.0572,-2.5863 -3.02323,0 -5.91355,-2.68384 -6.73978,-6.25831 -0.78178,-3.38219 -0.0358,-4.28919 6.05376,-7.36054 5.82786,-2.93937 10.92707,-3.36778 13.84211,-1.16295 1.06762,0.8075 2.81213,1.4825 3.87668,1.5 2.93178,0.0482 6.56445,3.99576 6.56445,7.13353 0,2.56701 -2.99142,5.98884 -6.30018,7.20666 -0.92428,0.3402 -0.9158,0.74285 0.0369,1.75337 1.01245,1.07384 1.69497,0.88128 3.76324,-1.06176 3.13651,-2.9466 4.44564,-1.9099 5.21397,4.12892 0.65524,5.15002 1.73427,6.72799 5.78564,8.46091 3.45576,1.47816 6.46779,0.9923 11.73183,-1.89241 z m -0.23144,-9.28075 c 0,-0.87084 0.53437,-1.40521 1.1875,-1.1875 1.85422,0.61807 2.16176,2.77083 0.39583,2.77083 -0.87083,0 -1.58333,-0.7125 -1.58333,-1.58333 z m -9,-0.91667 c 0,-0.825 0.40186,-1.5 0.89301,-1.5 0.49116,0 1.15203,0.675 1.46862,1.5 0.35062,0.91371 0.002,1.5 -0.89301,1.5 -0.80774,0 -1.46862,-0.675 -1.46862,-1.5 z m -53,-0.44098 c 0,-0.51754 0.45,-1.2191 1,-1.55902 0.55,-0.33992 1,0.0835 1,0.94098 0,0.85746 -0.45,1.55902 -1,1.55902 -0.55,0 -1,-0.42344 -1,-0.94098 z m 3.22917,-5.24652 c 0.61807,-1.85422 2.77083,-2.16176 2.77083,-0.39583 0,0.87083 -0.7125,1.58333 -1.58333,1.58333 -0.87084,0 -1.40521,-0.53438 -1.1875,-1.1875 z m 53.31354,-0.7434 c -0.31644,-0.512 -0.11799,-1.21356 0.44098,-1.55902 1.19337,-0.73755 3.01631,0.19857 3.01631,1.54894 0,1.2168 -2.70662,1.22469 -3.45729,0.0101 z m -43.32604,8.74757 c -1.52437,-1.52437 -2.4529,-0.59584 -1.60743,1.60742 0.46511,1.21205 0.96725,1.39942 1.72354,0.64313 0.75629,-0.75629 0.72246,-1.41198 -0.11611,-2.25055 z m 29.78333,1.74235 c 0,-1.79236 -1.6522,-2.89201 -3.04856,-2.02901 -0.7168,0.44301 -0.67806,1.09446 0.12245,2.05902 1.51095,1.82058 2.92611,1.80607 2.92611,-0.03 z m 37.4142,-11.34381 c 6.34486,-5.5725 18.98041,-13.86031 23.30967,-15.28909 3.67071,-1.21145 3.91801,-3.23495 0.45761,-3.74439 -4.07698,-0.6002 -20.32633,8.06451 -27.14762,14.47605 -5.6657,5.32537 -6.27084,6.26188 -5.64849,8.74154 0.7923,3.15677 0.53441,3.27629 9.02883,-4.18411 z m -7.4142,3.21184 c 0,-0.86202 4.02206,-7.42705 4.55017,-7.42705 0.21289,0 0.12804,0.675 -0.18854,1.5 -0.33636,0.87653 -0.0116,1.50636 0.78138,1.51531 1.0755,0.0121 1.05574,0.20589 -0.0953,0.93402 -0.79874,0.50529 -1.81124,0.69684 -2.25,0.42567 -0.43876,-0.27117 -0.79775,0.18197 -0.79775,1.00697 0,0.825 -0.45,1.77811 -1,2.11803 -0.55,0.33992 -1,0.30709 -1,-0.0729 z m 6.55279,-5.34164 c -0.32198,-0.52097 -0.15917,-1.21065 0.3618,-1.53262 0.52097,-0.32198 1.21065,-0.15917 1.53262,0.3618 0.32198,0.52097 0.15917,1.21065 -0.3618,1.53262 -0.52097,0.32198 -1.21065,0.15917 -1.53262,-0.3618 z m 3.44721,-2.97776 c 0,-0.67413 -0.45,-0.94757 -1,-0.60765 -0.55,0.33992 -1,0.14148 -1,-0.44098 0,-0.58246 0.42344,-1.05902 0.94098,-1.05902 1.23462,0 2.42741,1.96494 1.65916,2.7332 -0.33008,0.33007 -0.60014,0.0486 -0.60014,-0.62555 z m -82.52697,-1.86604 c 2.24965,-1.68373 2.27215,-1.84131 0.67698,-4.74161 -0.90751,-1.65 -1.98751,-3.15 -2.40001,-3.33333 -0.4125,-0.18334 -0.75,-1.67929 -0.75,-3.32435 0,-2.21593 1.23091,-4.25693 4.75,-7.87614 l 4.75,-4.88512 8.83881,1.21706 c 8.00889,1.10278 9.11325,1.52421 11.76178,4.48843 2.09171,2.34103 2.76043,3.91899 2.35143,5.54859 -0.52331,2.08504 -0.2847,2.24372 2.82757,1.88038 3.35896,-0.39213 3.39793,-0.45397 3.29886,-5.23374 -0.0551,-2.6603 -0.43285,-5.16951 -0.83935,-5.57601 -1.04445,-1.04445 -0.92142,-5.40577 0.15249,-5.40577 0.49038,0 1.188,1.18097 1.55027,2.62439 0.61292,2.44205 0.96556,2.58979 5.0758,2.12651 2.42941,-0.27383 7.85349,-2.1298 12.05352,-4.12439 8.13411,-3.86287 8.84493,-4.1088 8.02058,-2.77499 -0.28945,0.46834 1.3715,1.41112 3.69099,2.09507 7.5887,2.23768 12.14847,8.20757 10.80811,14.15055 -0.42795,1.89745 -1.2829,4.39317 -1.89989,5.54604 -1.44028,2.69119 -7.06086,5.35682 -11.29505,5.35682 l -3.30182,0 3.9059,4 c 4.12727,4.2267 6.15145,5.14004 5.05414,2.28048 -0.36292,-0.94573 -0.32976,-1.38943 0.0737,-0.986 0.89405,0.89405 6.49701,-4.28351 5.82032,-5.37841 -0.26441,-0.42783 0.0461,-1.1035 0.69007,-1.50148 0.73122,-0.45192 0.90292,-0.29014 0.45729,0.4309 -0.39244,0.63498 -0.26352,1.15451 0.28648,1.15451 1.00132,0 2.57393,-1.91336 2.60272,-3.16667 0.008,-0.36666 0.42496,-1.04166 0.92564,-1.5 0.52889,-0.48416 0.60891,-0.30957 0.19098,0.41667 -1.05631,1.83554 -0.71998,1.71029 10.2238,-3.80739 l 10.03084,-5.05739 -1.03707,-2.97492 c -0.57038,-1.63622 -2.45047,-4.05203 -4.17797,-5.36849 -3.53468,-2.69364 -15.45993,-8.53981 -17.42229,-8.54102 -4.39658,-0.003 0.0237,-12.33836 6.87703,-19.19168 l 4.80908,-4.80911 -3.56705,0 c -5.01892,0 -12.97203,4.64106 -17.0056,9.92368 l -3.40937,4.46511 3.03863,2.37808 c 2.15132,1.68366 3.03863,3.23295 3.03863,5.30561 0,3.81271 -1.12876,3.68324 -3,-0.34412 -1.34852,-2.90233 -1.98865,-3.25951 -6.33872,-3.53677 -3.66872,-0.23384 -6.02182,0.31021 -9.73159,2.25 -6.47924,3.38789 -8.19296,3.19409 -4.16391,-0.4709 l 3.26577,-2.97069 -8.26577,0.007 c -7.91622,0.007 -22.58635,2.75623 -26.83345,5.02921 -2.58436,1.3831 -2.56407,-0.79817 0.0846,-9.08907 2.15826,-6.75594 1.61753,-8.89223 -1.78927,-7.06896 -2.36139,1.26377 -4.76891,6.88016 -5.74801,13.40924 -0.58466,3.89883 -0.43826,4.71258 0.84784,4.71258 0.85499,0 1.86959,0.50979 2.25467,1.13286 0.50822,0.82231 -0.83094,0.94156 -4.88528,0.435 -3.49571,-0.43676 -6.35453,-0.28624 -7.64112,0.40233 -2.22582,1.19122 -2.70428,3.98124 -0.97867,5.70685 0.7694,0.7694 0.22269,1.68541 -1.91395,3.20683 -6.90493,4.91674 -10.21274,18.27486 -6.64171,26.82155 2.83512,6.78539 3.63449,6.97434 5.73084,1.35458 1.0416,-2.79223 2.94096,-5.86051 4.22081,-6.81839 z m 25.72343,0.55485 c -1.20408,-1.20408 -5.4192,-0.66352 -5.8852,0.75473 -0.21464,0.65328 1.01666,0.89218 3.2528,0.63112 2.31382,-0.27012 3.25345,-0.7648 2.6324,-1.38585 z m -16.97321,-5.70058 c 2.35221,-1.04727 5.40175,-2.36682 6.77675,-2.93232 2.20182,-0.90556 2.25549,-1.03627 0.45,-1.09588 -1.1275,-0.0372 -2.50272,-0.52039 -3.05603,-1.07371 -1.00586,-1.00586 -9.81089,0.0896 -11.1026,1.38133 -0.63604,0.63603 1.2801,5.6247 2.16044,5.6247 0.27208,0 2.41923,-0.85686 4.77144,-1.90412 z m 60.52557,-1.78098 c 3.29956,-1.56574 4.98712,-4.95468 3.89041,-7.81266 -0.81792,-2.13148 -5.36797,-1.86077 -8.36636,0.49776 -1.39842,1.1 -3.09621,2 -3.77287,2 -0.67666,0 -2.37445,-0.9 -3.77287,-2 -2.64723,-2.08231 -7.78002,-2.54776 -14.97713,-1.35815 -2.99706,0.49538 -3.75,1.05757 -3.75,2.79994 0,1.76137 0.91234,2.41658 4.75,3.41127 2.6125,0.67714 6.55,2.09869 8.75,3.159 4.57499,2.20495 11.74366,1.91521 17.24882,-0.69716 z m -44.99882,-2.94519 c 1.2375,-0.33163 2.25,-1.22549 2.25,-1.98634 0,-2.05737 -3.42786,-1.67305 -5.5,0.61663 -1.96059,2.16643 -1.09079,2.533 3.25,1.36971 z m -7.75,-1.36971 c 0,-0.55 -0.47656,-1 -1.05902,-1 -0.58246,0 -0.7809,0.45 -0.44098,1 0.33992,0.55 0.81648,1 1.05902,1 0.24254,0 0.44098,-0.45 0.44098,-1 z m -1.70865,-2.83718 11.79135,-1.7365 -2.29135,-2.08268 c -1.64358,-1.49391 -4.19143,-2.24952 -9.01254,-2.67284 -6.19898,-0.54432 -6.95826,-0.39068 -9.77254,1.97738 -3.72996,3.13855 -5.67747,6.37535 -3.79145,6.30148 0.70685,-0.0277 6.59129,-0.83176 13.07653,-1.78684 z m 46.20865,-1.16282 c 0.33992,-0.55 -0.33508,-1 -1.5,-1 -1.16492,0 -1.83992,0.45 -1.5,1 0.33992,0.55 1.01492,1 1.5,1 0.48508,0 1.16008,-0.45 1.5,-1 z m 12.4975,-3.10398 c 0.005,-1.31474 -5.06966,-5.97296 -7.52429,-6.90621 -4.08731,-1.55399 -6.90521,-1.18874 -12.25923,1.58902 -2.73382,1.41836 -6.81868,2.82672 -9.07746,3.12968 -2.25879,0.30297 -4.52582,1.055 -5.03786,1.67117 -0.68128,0.81984 3.73948,1.12032 16.48268,1.12032 9.57751,0 17.41478,-0.27179 17.41616,-0.60398 z m 151.46919,4.46119 c -278.57143,179.07681 -139.28572,89.5384 0,0 z m -129.80816,-18.4174 c 1.77502,-2.68224 2.83427,-5.83719 3.12112,-9.2962 0.37917,-4.57233 0.0925,-5.64209 -2.26161,-8.43981 -1.48271,-1.76209 -3.34088,-3.2038 -4.12928,-3.2038 -2.59801,0 -10.23634,8.03402 -11.98056,12.60119 -0.93332,2.44387 -1.3788,4.76155 -0.98995,5.1504 0.89043,0.89043 11.82593,6.97525 12.81756,7.13206 0.4047,0.064 1.94492,-1.71074 3.42272,-3.94384 z m -88.37351,-5.41644 c 0.27171,-2.21285 0.83267,-4.92337 1.24655,-6.02337 0.41882,-1.1131 -1.74943,0.42382 -4.88952,3.46584 -3.10313,3.00621 -5.64062,5.70621 -5.63886,6 0.002,0.29379 1.97972,0.54468 4.39549,0.55753 4.38491,0.0233 4.39314,0.0166 4.88634,-4 z m 207.59648,115.98684 c -6.76229,-1.47996 -7.8815,-2.1004 -7.8815,-4.36923 0,-2.62436 2.03821,-4.14098 5.56514,-4.14098 3.66688,0 7.17334,2.48202 9.7414,6.89536 2.1263,3.65417 2.00937,3.6796 -7.42504,1.61485 z m 3.07429,-4.05727 c -1.71894,-1.82973 -3.22491,-2.4634 -5.3473,-2.25 -6.35942,0.63942 -2.39495,4.52344 4.81582,4.71811 l 2.92432,0.0789 -2.39284,-2.54706 z m 31.46745,-0.3045 c 1.76017,-3.4038 7.579,-8.69699 10.62256,-9.66298 2.65559,-0.84285 5.50797,1.62906 4.60252,3.98862 -0.49431,1.28816 -14.27165,8.52592 -16.2294,8.52592 -0.25865,0 0.19329,-1.2832 1.00432,-2.85156 z m 13.36068,-6.0002 c 0.82399,-2.47197 -4.00895,-0.96478 -7.54861,2.35409 l -3.73531,3.50232 5.45059,-2.35409 c 2.99782,-1.29474 5.62282,-2.87079 5.83333,-3.50232 z m -255.73477,-4.58902 c -1.8556,-2.23586 -0.54849,-7.5392 2.8604,-11.60549 1.59244,-1.89955 3.1875,-3.16798 3.54456,-2.81874 0.35706,0.34925 0.28846,3.94925 -0.15245,8 -0.69627,6.39675 -1.0761,7.40422 -2.88916,7.66327 -1.14813,0.16404 -2.66164,-0.39353 -3.36335,-1.23904 z m 4.88057,-7.00922 c 0.0766,-4.30362 -0.8766,-3.90769 -2.89114,1.2009 -1.05143,2.6663 -1.04377,3.53792 0.0426,4.84695 1.2024,1.44881 1.39165,1.42566 2.05141,-0.2509 0.39975,-1.01582 0.75844,-3.62445 0.7971,-5.79695 z"
       id="path2983"
       inkscape:connector-curvature="0"
       sodipodi:nodetypes="cssssssssscssscsssssssssssscsssssssscscssscscsssssssssssscsscssssssscsscccssssssssccssscsssccssssssscssssscssscscscsssscsssssssssscsssssssssssssssssssssssssscsssssssssssssssssscsssssssssscssssssssssssssssssssssscssccssssssssssssssscccssscsssssssssssssssssscscccssscccssssssssssscssssssssssssssssscsssccsssssscssssssssssscssccssssssssssssssscssccssscccccccsssscscscsscsssscsssssssssscsscscsscssscsscscsscssssssccssssssssssssccscsssscscsssssssssssssssssssssscssscsssssscssssscccssssssssssscssssssscsccccssssssscsssscssscssscc" />
  </g>
</svg>
